# AST/ASF file generated using VICON BodyLanguage
# -----------------------------------------------
:version 1.10
:name VICON
:units
  mass 1.0
  length 0.45
  angle deg
:documentation
   .ast/.asf automatically generated from VICON data using
   VICON BodyBuilder and BodyLanguage model FoxedUp or BRILLIANT.MOD
:root
   order TX TY TZ RX RY RZ
   axis XYZ
   position 0 0 0  
   orientation 0 0 0 
:bonedata
  begin
     id 1 
     name lhipjoint
     direction 0.54267 -0.795011 0.271047 
     length 2.39899 
     axis 0 0 0  XYZ
  end
  begin
     id 2 
     name lfemur
     direction 0.34202 -0.939693 0  
     length 7.49701  
     axis 0 0 20  XYZ
    dof rx ry rz
    limits (-160.0 20.0)
           (-70.0 70.0)
           (-60.0 70.0)
  end
  begin
     id 3 
     name ltibia
     direction 0.34202 -0.939693 0   
     length 8.1668   
     axis 0 0 20   XYZ
    dof rx
    limits (-10.0 170.0)
  end
  begin
     id 4 
     name lfoot
     direction 0.0736283 -0.202292 0.976554   
     length 2.13544   
     axis -90 7.62852e-016 20   XYZ
    dof rx rz
    limits (-45.0 90.0)
           (-70.0 20.0)
  end
  begin
     id 5 
     name ltoes
     direction 1.53557e-011 -4.22024e-011 1   
     length 1.07411   
     axis -90 7.62852e-016 20   XYZ
    dof rx
    limits (-90.0 20.0)
  end
  begin
     id 6 
     name rhipjoint
     direction -0.538061 -0.797813 0.272002   
     length 2.39057  
     axis 0 0 0  XYZ 
  end
  begin
     id 7 
     name rfemur
     direction -0.34202 -0.939693 0   
     length 7.50152   
     axis 0 0 -20   XYZ
    dof rx ry rz
    limits (-160.0 20.0)
           (-70.0 70.0)
           (-70.0 60.0)
  end
  begin
     id 8 
     name rtibia
     direction -0.34202 -0.939693 0   
     length 8.05793   
     axis 0 0 -20   XYZ
    dof rx
    limits (-10.0 170.0)
 end
 begin
     id 9 
     name rfoot
     direction -0.0765195 -0.210236 0.974652   
     length 2.28698  
     axis -90 -7.62852e-016 -20   XYZ
    dof rx rz
    limits (-45.0 90.0)
           (-20.0 70.0)
  end
  begin
     id 10 
     name rtoes
     direction -1.53542e-011 -4.21847e-011 1   
     length 1.14762   
     axis -90 -7.62852e-016 -20   XYZ
    dof rx
    limits (-90.0 20.0)
  end
  begin
     id 11 
     name lowerback
     direction -0.0217239 0.996592 -0.0795765   
     length 2.08176   
     axis 0 0 0   XYZ
    dof rx ry rz
    limits (-20.0 45.0)
           (-30.0 30.0)
           (-30.0 30.0)
  end
  begin
     id 12 
     name upperback
     direction -0.00563773 0.999651 -0.0258155   
     length 2.08898   
     axis 0 0 0   XYZ
    dof rx ry rz
    limits (-20.0 45.0)
           (-30.0 30.0)
           (-30.0 30.0)
  end
  begin
     id 13 
     name thorax
     direction 0.0032706 0.999923 0.0119599   
     length 2.0968   
     axis 0 0 0   XYZ
    dof rx ry rz
    limits (-20.0 45.0)
           (-30.0 30.0)
           (-30.0 30.0)
  end
  begin
     id 14 
     name lowerneck
     direction -0.0285886 0.99568 0.0883427   
     length 1.81272   
     axis 0 0 0   XYZ
    dof rx ry rz
    limits (-20.0 45.0)
           (-30.0 30.0)
           (-30.0 30.0)
  end
  begin
     id 15 
     name upperneck
     direction 0.0807535 0.97985 -0.18268   
     length 1.82518   
     axis 0 0 0   XYZ
    dof rx ry rz
    limits (-20.0 45.0)
           (-30.0 30.0)
           (-30.0 30.0)
  end
  begin
     id 16
     name head
     direction 0.0236605 0.997053 -0.0729767  
     length 1.84443  
     axis 0 0 0   XYZ
    dof rx ry rz
    limits (-20.0 45.0)
           (-30.0 30.0)
           (-30.0 30.0)
  end
  begin
     id 17 
     name lclavicle
     direction 0.918986 0.39378 -0.0200683  
     length 3.27822  
     axis 0 0 0   XYZ
    dof ry rz
    limits (-20.0 10.0)
           (0.0 20.0)
  end
  begin
     id 18 
     name lhumerus
     direction 1 -4.4897e-011 2.09544e-027   
     length 5.5568   
     axis 180 -30 -90   XYZ
    dof rx ry rz
    limits (-60.0 90.0)
           (-90.0 90.0)
           (-90.0 90.0)
  end
  begin
     id 19
     name lradius
     direction 1 -4.48957e-011 -1.27696e-026   
     length 3.63979   
     axis 180 -30 -90   XYZ
    dof rx
    limits (-10.0 170.0)
  end
  begin
     id 20
     name lwrist
     direction 1 -4.49001e-011 -1.49001e-026   
     length 1.8199   
     axis 9.0955e-015 90 90   XYZ
    dof ry
    limits (-180.0 0.0)
 end
  begin
     id 21 
     name lhand
     direction 1 -4.48709e-011 -2.9758e-026   
     length 0.569419   
     axis 1.90115e-014 90 90   XYZ
    dof rx rz
    limits (-90.0 90.0)
           (-45.0 45.0)
  end
  begin
     id 22 
     name lfingers
     direction 1 -4.49175e-011 -5.96505e-026   
     length 0.45908   
     axis 3.80223e-014 90 90   XYZ
    dof rx
    limits (0.0 90.0)
  end
  begin
     id 23
     name lthumb
     direction 0.707107 -6.34864e-011 0.707107   
     length 0.65915   
     axis -90 45 -3.84942e-014   XYZ
    dof rx rz
    limits (-45.0 45.0)
           (-45.0 45.0)
  end
  begin
     id 24 
     name rclavicle
     direction -0.911913 0.396426 -0.106115   
     length 3.46301  
     axis 0 0 0   XYZ 
    dof ry rz
    limits (-10.0 20.0)
           (-20.0 0.0)
  end
  begin
     id 25 
     name rhumerus
     direction -1 -4.48965e-011 7.78516e-028  
     length 5.34339   
     axis 180 30 90   XYZ
    dof rx ry rz
    limits (-90.0 60.0)
           (-90.0 90.0)
           (-90.0 90.0)
  end
  begin
     id 26 
     name rradius
     direction -1 -4.48948e-011 -5.79823e-027   
     length 3.65101   
     axis 180 30 90   XYZ
    dof rx
    limits (-10.0 170.0)
  end
  begin
     id 27 
     name rwrist
     direction -1 -4.48995e-011 -1.48996e-026   
     length 1.8255   
     axis 9.0955e-015 -90 -90   XYZ
    dof ry
    limits (-180.0 0.0)
  end
  begin
     id 28
     name rhand
     direction -1 -4.48957e-011 -2.97937e-026   
     length 0.694249   
     axis 1.90115e-014 -90 -90   XYZ
    dof rx rz
    limits (-90.0 90.0)
           (-45.0 45.0)
  end
  begin
     id 29
     name rfingers
     direction -1 -4.4898e-011 -5.95943e-026   
     length 0.559721   
     axis 3.80223e-014 -90 -90   XYZ
    dof rx
    limits (0.0 90.0)
  end
  begin
     id 30
     name rthumb
     direction -0.707107 -6.34969e-011 0.707107   
     length 0.803651   
     axis -90 -45 3.84942e-014   XYZ
    dof rx rz
    limits (-45.0 45.0)
           (-45.0 45.0)
  end
:hierarchy
  begin
    root lhipjoint rhipjoint lowerback
    lhipjoint lfemur
    lfemur ltibia
    ltibia lfoot
    lfoot ltoes
    rhipjoint rfemur
    rfemur rtibia
    rtibia rfoot
    rfoot rtoes
    lowerback upperback
    upperback thorax
    thorax lowerneck lclavicle rclavicle
    lowerneck upperneck
    upperneck head
    lclavicle lhumerus
    lhumerus lradius
    lradius lwrist
    lwrist lhand lthumb
    lhand lfingers
    rclavicle rhumerus
    rhumerus rradius
    rradius rwrist
    rwrist rhand rthumb
    rhand rfingers
  end

#!OML:ASF H:\Terrain\Walking\May29\JustinRory\rory.ASF
:FULLY-SPECIFIED
:DEGREES
95
root 11.3138 14.7856 5.4321 188.449 -5.64281 177.944
lowerback 52.159 4.65947 11.1401
upperback 4.42228 8.33583 -5.19213
thorax -13.9669 2.12561 -14.8169
lowerneck 2.67374 -10.4541 22.8589
upperneck 17.6717 -15.7543 -1.72394
head 3.41327 -6.90086 -4.17106
rclavicle -9.54166e-014 1.74931e-014
rhumerus -41.7746 -24.058 -34.0665
rradius 60.9872
rwrist 5.08145
rhand 4.70207 380.422
rfingers 7.12502
rthumb 30.0858 -7.15008
lclavicle -9.54166e-014 1.74931e-014
lhumerus -4.92427 -35.1522 59.2557
lradius 65.9789
lwrist 15.218
lhand -20.7201 15.9081
lfingers 7.12502
lthumb 5.6446 45.8129
rfemur -57.7471 1.03159 -6.96689
rtibia 72.3951
rfoot -14.0723 -5.88479
rtoes -22.0709
lfemur -61.1689 12.819 1.38831
ltibia 80.4676
lfoot -12.9037 0.9548
ltoes -5.01363
96
root 11.4272 14.7163 5.41218 188.165 -5.14224 177.737
lowerback 52.3685 5.02558 11.2284
upperback 4.59385 8.77948 -5.19523
thorax -13.6639 2.33823 -15.028
lowerneck 1.7389 -9.4447 24.0106
upperneck 19.2299 -14.5927 -3.56558
head 3.94017 -6.25272 -5.06883
rclavicle 6.36111e-014 -1.74931e-014
rhumerus -39.5857 -25.148 -33.8647
rradius 57.7412
rwrist 5.0084
rhand 5.36189 380.862
rfingers 7.12502
rthumb 30.7151 -6.59313
lclavicle 6.36111e-014 -1.74931e-014
lhumerus -5.03381 -34.6059 60.1381
lradius 66.0688
lwrist 15.2842
lhand -20.8975 17.3976
lfingers 7.12502
lthumb 5.47331 47.3069
rfemur -57.9149 0.574668 -6.58541
rtibia 72.8648
rfoot -15.0717 -5.66144
rtoes -24.3184
lfemur -61.3456 13.5612 1.07868
ltibia 81.3626
lfoot -13.5699 0.31214
ltoes -4.40315
97
root 11.5374 14.6634 5.38769 187.682 -4.78319 177.495
lowerback 52.8846 5.40587 11.2041
upperback 4.647 9.23947 -5.05548
thorax -13.5737 2.5282 -15.0404
lowerneck 1.05977 -8.62712 25.1055
upperneck 20.6587 -13.5685 -5.52194
head 4.38877 -5.70428 -5.98027
rclavicle 1.46306e-013 -7.63333e-014
rhumerus -37.5069 -25.8932 -33.579
rradius 54.2865
rwrist 5.36656
rhand 4.91025 382.535
rfingers 7.12502
rthumb 30.2844 -5.00021
lclavicle 1.46306e-013 -7.63333e-014
lhumerus -5.34897 -34.205 61.3387
lradius 65.9428
lwrist 15.1348
lhand -21.6104 17.7851
lfingers 7.12502
lthumb 4.78493 47.7111
rfemur -57.6139 0.400021 -6.48929
rtibia 73.3504
rfoot -16.0379 -5.15114
rtoes -26.9747
lfemur -61.2919 14.0929 0.719047
ltibia 82.1603
lfoot -14.3527 -0.11516
ltoes -6.23262
98
root 11.6477 14.602 5.36436 187.356 -4.16502 177.47
lowerback 53.127 5.77898 11.0918
upperback 4.69462 9.64277 -4.85449
thorax -13.489 2.69799 -14.9138
lowerneck 1.06628 -7.78023 25.3132
upperneck 21.8951 -12.3843 -6.88083
head 4.80916 -5.13116 -6.55698
rclavicle -1.11319e-014 2.06736e-014
rhumerus -34.9024 -26.1814 -33.6585
rradius 50.6949
rwrist 5.95898
rhand 2.87663 384.419
rfingers 7.12502
rthumb 28.3427 -3.45614
lclavicle -1.11319e-014 2.06736e-014
lhumerus -6.10899 -33.4123 62.6388
lradius 65.7516
lwrist 14.9278
lhand -22.5685 17.0046
lfingers 7.12502
lthumb 3.85979 46.9494
rfemur -57.9767 0.468304 -6.17539
rtibia 74.0489
rfoot -16.5725 -5.17346
rtoes -32.2669
lfemur -61.3352 14.9529 0.598662
ltibia 82.9237
lfoot -15.1537 -0.589816
ltoes -11.1579
99
root 11.754 14.5279 5.35134 187.233 -3.51375 177.807
lowerback 53.1942 5.84111 11.5095
upperback 4.74807 9.94145 -4.83301
thorax -13.2923 2.82865 -15.1917
lowerneck 1.17836 -6.80673 25.2511
upperneck 22.9916 -11.0404 -7.7801
head 5.26548 -4.48404 -6.9467
rclavicle 6.99722e-014 -4.77083e-015
rhumerus -32.0339 -26.3212 -34.1359
rradius 47.0701
rwrist 6.00273
rhand 1.25076 384.81
rfingers 7.12502
rthumb 26.7878 -3.31324
lclavicle 6.99722e-014 -4.77083e-015
lhumerus -6.70124 -32.7901 63.4366
lradius 65.6123
lwrist 15.0571
lhand -22.5348 17.176
lfingers 7.12502
lthumb 3.89234 47.1202
rfemur -59.1809 0.282073 -5.11361
rtibia 74.9176
rfoot -17.2346 -4.86018
rtoes -32.0864
lfemur -61.7345 15.9904 0.862527
ltibia 83.6632
lfoot -15.7886 -1.44783
ltoes -15.8745
100
root 11.8539 14.448 5.3322 187.01 -2.83355 177.661
lowerback 53.656 6.13126 11.5983
upperback 4.75632 10.3327 -4.86622
thorax -13.2226 2.98884 -15.4348
lowerneck 0.974904 -5.93442 25.7035
upperneck 24.0158 -9.84094 -8.91115
head 5.70915 -3.8876 -7.49533
rclavicle -8.90555e-014 -5.40694e-014
rhumerus -29.6229 -26.9079 -34.2493
rradius 43.5542
rwrist 5.79321
rhand 0.0117664 384.501
rfingers 7.12502
rthumb 25.6016 -3.79767
lclavicle -8.90555e-014 -5.40694e-014
lhumerus -6.94269 -32.7166 64.0599
lradius 65.6336
lwrist 15.4603
lhand -22.3685 16.7825
lfingers 7.12502
lthumb 4.05293 46.7237
rfemur -59.872 -0.060826 -4.7798
rtibia 76.2333
rfoot -17.9651 -4.07451
rtoes -30.56
lfemur -62.0131 16.9112 0.594582
ltibia 84.4115
lfoot -16.0867 -2.65113
ltoes -17.2662
101
root 11.9475 14.4016 5.29126 186.603 -1.96115 176.993
lowerback 54.2023 6.90693 11.0348
upperback 4.8901 10.8995 -4.77732
thorax -13.0959 3.24077 -15.2966
lowerneck 0.530394 -5.26944 26.8164
upperneck 25.0074 -8.83033 -10.7766
head 6.09028 -3.38692 -8.4069
rclavicle -5.40694e-014 -4.77083e-015
rhumerus -27.5215 -27.8133 -33.9407
rradius 40.3109
rwrist 5.62732
rhand -0.515544 384.628
rfingers 7.12502
rthumb 25.0965 -3.74292
lclavicle -5.40694e-014 -4.77083e-015
lhumerus -7.1344 -32.7785 64.7239
lradius 65.8612
lwrist 15.3727
lhand -22.667 16.1682
lfingers 7.12502
lthumb 3.76467 46.1147
rfemur -60.546 -0.271362 -4.87686
rtibia 77.5418
rfoot -18.4638 -3.85656
rtoes -29.0387
lfemur -61.627 17.7089 -0.232389
ltibia 84.989
lfoot -16.6137 -3.89997
ltoes -17.9534
102
root 12.0588 14.3022 5.28804 187.207 -2.44633 176.96
lowerback 53.5707 7.0499 11.2336
upperback 5.00699 11.2616 -4.49733
thorax -12.7937 3.45898 -15.1824
lowerneck -0.11986 -4.77402 28.5916
upperneck 25.6287 -7.93024 -13.317
head 6.31337 -2.95715 -9.67051
rclavicle -4.77083e-014 6.67916e-014
rhumerus -25.5833 -28.9228 -33.5773
rradius 37.3557
rwrist 5.47187
rhand -0.68884 385.584
rfingers 7.12502
rthumb 24.9304 -2.81009
lclavicle -4.77083e-014 6.67916e-014
lhumerus -7.07966 -33.0163 65.0799
lradius 66.1187
lwrist 15.004
lhand -22.8249 16.3791
lfingers 7.12502
lthumb 3.6122 46.3283
rfemur -62.0281 -1.6545 -4.2758
rtibia 79.1348
rfoot -18.1731 -4.89908
rtoes -32.8579
lfemur -63.4002 17.9782 -0.608607
ltibia 85.6725
lfoot -16.5405 -5.28672
ltoes -19.6318
103
root 12.1586 14.1937 5.27606 187.514 -2.60561 177.365
lowerback 53.4135 6.96169 11.8219
upperback 5.03261 11.533 -4.39888
thorax -12.5834 3.59734 -15.4294
lowerneck -1.12956 -3.8139 29.2322
upperneck 27.2395 -6.89759 -14.3394
head 7.16088 -2.39774 -10.3611
rclavicle 1.19271e-013 -2.06736e-014
rhumerus -23.4597 -29.9181 -33.7497
rradius 34.7372
rwrist 5.41431
rhand -0.89175 385.536
rfingers 7.12502
rthumb 24.736 -2.88447
lclavicle 1.19271e-013 -2.06736e-014
lhumerus -7.09055 -33.0553 64.9609
lradius 66.5742
lwrist 14.9177
lhand -22.4319 16.8445
lfingers 7.12502
lthumb 3.99174 46.7868
rfemur -63.2739 -2.47899 -3.27591
rtibia 80.5481
rfoot -16.9877 -7.23451
rtoes -39.8247
lfemur -64.795 18.6105 -0.450765
ltibia 86.3587
lfoot -16.1128 -6.85757
ltoes -20.6912
